<svg xmlns="http://www.w3.org/2000/svg" width="29" height="32"><path fill="#c00020" d="M2.72 22.456s3.673-4.12 2.532-11.661S8.741-.1 12.526 1.544c5.137 2.229 5.383 15.83-9.806 20.912z"/><path fill="#3a801f" d="M3.497 25.621s4.618.427 9.146-4.11 9.105-3.081 9.884.298c1.057 4.584-8.011 11.54-19.03 3.811z"/><path fill="#8ba800" d="M19.162 12.47s2.109-.907 3.004-3.95 3.23-3.493 4.368-2.209c1.544 1.744-.754 6.913-7.373 6.159zM18.417 11.07s.691-1.231-.009-3.053.272-2.913 1.308-2.71c1.406.274 2.215 3.658-1.299 5.763zM18.898 13.8s1.666.972 4.17.059 3.973.439 3.675 1.851c-.408 1.914-5.049 2.941-7.843-1.91z"/></svg>