<svg xmlns="http://www.w3.org/2000/svg" xmlns:xlink="http://www.w3.org/1999/xlink" width="56.629" height="45.491" viewBox="0 0 56.629 45.491">
  <defs>
    <clipPath id="clip-path">
      <rect id="Rectangle_1523" data-name="Rectangle 1523" width="56.629" height="45.491" fill="#340009"/>
    </clipPath>
  </defs>
  <g id="Group_3586" data-name="Group 3586" transform="translate(0 0)">
    <g id="Group_3585" data-name="Group 3585" transform="translate(0 0)" clip-path="url(#clip-path)">
      <path id="Path_8347" data-name="Path 8347" d="M40.08,30c.186-.25.355-.514.561-.746.622-.7.851-1.762,1.517-2.292s1.637.227,2.506.209a2.055,2.055,0,0,0,2-1.416A2.16,2.16,0,0,1,48.5,24.184a4.92,4.92,0,0,0,1.016-.449c1.717-.71,1.989-1.1,1.684-2.922-.112-.668-.143-1.113.484-1.579a2.236,2.236,0,0,0,.584-2.566c-.133-.519-.018-.727.54-.914,2.746-.92,3.733-2.264,3.821-5.026a2.886,2.886,0,0,0-3.343-3.206,2.762,2.762,0,0,1-2.758-.877A2.482,2.482,0,0,0,47.11,6.7c-.763.58-1.076.43-1.536-.366a9.559,9.559,0,0,1-.985-1.958A1.872,1.872,0,0,0,41.946,3.1a5.889,5.889,0,0,0-2.554,1.482c-.767.78-1.74-.307-2.637.287A12,12,0,0,0,33.64,7.2c-.547.7-1.087.992-1.793.194a1.1,1.1,0,0,0-.636-.364c-.948-.09-.777-.6-.665-1.293a5.286,5.286,0,0,0-1.679-5.2A1.721,1.721,0,0,0,26.82.2a2.882,2.882,0,0,1-2.642.27c-.768-.336-1.528.331-2.241.7a3.8,3.8,0,0,0-1.372,1.247A4.892,4.892,0,0,1,17.746,4.3a5.9,5.9,0,0,0-3.982,7.01c.26,1.28.589,2.546.906,3.814a5.23,5.23,0,0,1,.095,2.4.6.6,0,0,1-1.124.234,4.841,4.841,0,0,1-.854-2.048c-.181-.9-.427-1.716-1.532-1.831A3.009,3.009,0,0,0,8.61,15.313a4.283,4.283,0,0,0-.532,2.335,16.548,16.548,0,0,0,.613,3.488A9.618,9.618,0,0,1,9.1,23.9c.009.509-.011,1.052-.494,1.336-1.449.852-1.134,2.042-.676,3.264A5.981,5.981,0,0,1,7.8,33.04a4.072,4.072,0,0,1-1.3,1.775,25.956,25.956,0,0,0-3.516,3.339A11.546,11.546,0,0,0,.1,43.914,3.862,3.862,0,0,0,0,44.84a.636.636,0,0,0,.554.645.551.551,0,0,0,.573-.39,7.906,7.906,0,0,0,.34-1.063,17.444,17.444,0,0,1,1.137-2.958C4.1,37.823,6.985,36.245,10.095,35.1A3.988,3.988,0,0,1,15,37.411a12.211,12.211,0,0,0,1.02,1.774c.848,1.184,1.035,1.226,2.38.418.531-.319.76-.192,1,.3a14.759,14.759,0,0,0,1.315,2.461,3.333,3.333,0,0,0,2.639,1.523c.621.031,1.236.165,1.857.192,1.534.066,1.9-.218,2-1.727.043-.646.08-1.11.871-1.077a.507.507,0,0,0,.355-.087c1.216-1.342,2.362-.67,3.577.041.866.507,1.892.955,2.7-.045.576-.716,1.847-.976,1.563-2.321-.119-.564.234-.781.8-.551a1.935,1.935,0,0,0,1.961-.081c.5-.351.943-.063,1.413.075a6.767,6.767,0,0,0,5.055-.745,3.374,3.374,0,0,0,1.506-3.4,3.041,3.041,0,0,0-2.322-2.853c-1.369-.4-2.759-.717-4.136-1.085a2.222,2.222,0,0,1-.472-.26.457.457,0,0,1-.578-.015,4.238,4.238,0,0,1-2.158.373,4.688,4.688,0,0,1-2.2-.23c-.33-.138-.77-.325-.63-.774.119-.381.531-.2.813-.148,1.4.265,2.789.551,4.183.831l.575,0m-10.57-4.367.034-.109-.015.083a3.449,3.449,0,0,1-.5.164c-.105.018-.281,0-.322-.066-.071-.112.032-.188.186-.213.233-.039.466-.12.621.141M19.184,9.048c.4.6,0,1.155-.134,1.716a.327.327,0,0,1-.414.257.34.34,0,0,1-.228-.423c.175-.569.244-1.2.828-1.554q-.188-.145,0-.122l-.058.127m14.3,18.615.064,0c-1.182,2.179-.309,3.821,2.117,3.968a5.9,5.9,0,0,0,1.672.022c2.238-.535,4.3.279,6.406.741a2.069,2.069,0,0,1,1.792,1.883,2.377,2.377,0,0,1-1.267,2.5,4.652,4.652,0,0,1-4.3.159c-.451-.2-.866-.488-1.312-.705-.593-.289-.979-.246-.818.573.143.724-.277.767-.734.5a7.233,7.233,0,0,1-1.128-.967A7.365,7.365,0,0,0,34.2,34.982c-.463-.217-.944-.438-1.284.179a.807.807,0,0,0,.376,1.238,3.181,3.181,0,0,1,1.181.883,1.815,1.815,0,0,1,.045,2.382c-.689.775-1.268.868-2.311.256a5.728,5.728,0,0,1-2.644-2.529A9.711,9.711,0,0,0,28.6,35.8a3.327,3.327,0,0,0-1.718-1.368,1.768,1.768,0,0,0-2.089.723,1.9,1.9,0,0,0,.956,1.856c.381.2.824.283,1.216.468a1.932,1.932,0,0,1,1.194,1.748c.019.426-.154.705-.639.715-.684.014-1.355-1.029-2.012-.142-.514.695.241,1.393.252,2.117.007.487-.069.831-.654.911a3.541,3.541,0,0,1-3.8-2.038c-.452-.954-.907-1.912-1.267-2.9a1.439,1.439,0,0,0-1.382-1.024l.065,0c-.205.231-.426.451-.613.7-.844,1.108-.872,1.114-1.54,0a6.889,6.889,0,0,1-.519-.991,4.28,4.28,0,0,0-2.459-2.387,11.079,11.079,0,0,0-3.377-.747,25.986,25.986,0,0,1,2.113-1.521,5.563,5.563,0,0,1,5.831-.172,15.055,15.055,0,0,1,4.708,4.687c.2.274.245.854.71.629.4-.2.153-.67.018-1a4.53,4.53,0,0,0-.46-.807,15.376,15.376,0,0,0-4.816-4.591c-.236-.144-.694-.172-.577-.555.1-.323.525-.287.825-.3a17.1,17.1,0,0,1,3.709.324c1.65.308,3.3.629,4.951.918.254.044.672.18.732-.245.04-.284-.313-.333-.546-.393-3.591-.929-7.163-2.033-10.927-1.168-.05-.291.137-.356.274-.463a65.677,65.677,0,0,1,10.176-6.174,12.7,12.7,0,0,1,8.462-1.38h-.053a11.433,11.433,0,0,1,4.3,1.066c.282.131.648.175.768-.216a.624.624,0,0,0-.309-.632,4.635,4.635,0,0,0-1.542-.611,52.91,52.91,0,0,0-5.807-.889,21.834,21.834,0,0,1,5.931-2.331l-.065,0a10.575,10.575,0,0,1,3.073-1.248,6.192,6.192,0,0,0,2.036-.893c.179-.148.43-.323.287-.588-.1-.184-.336-.083-.5-.018-2.371.923-4.874,1.477-7.189,2.556-.786.366-1.559.761-2.348,1.12-.154.07-.43.115-.518.032-.205-.194-.1-.443.054-.661A5.219,5.219,0,0,0,34,17.134a.311.311,0,0,0-.187-.449.381.381,0,0,0-.324.079c-.369.419-.725.852-1.072,1.291a8.988,8.988,0,0,1-3.205,2.5c-3.86,1.864-7.567,3.994-11.223,6.222a8.929,8.929,0,0,1-2.406,1.512c-.048-.732.412-1.107.72-1.563a49.309,49.309,0,0,0,5.816-12.239c.074-.222.172-.547-.1-.667s-.418.154-.5.386c-.176.464-.349.93-.508,1.4a55.661,55.661,0,0,1-6.7,13.047,7.962,7.962,0,0,1-2.282,2.15c-.69.463-.34-.373-.577-.482l.043,0c-.464.655-.922,1.315-1.4,1.963-.1.139-.264.286-.455.191A.364.364,0,0,1,9.494,32c.555-1.6-.584-3.449.731-4.951.125-.143.019-.483.03-.731a20.8,20.8,0,0,0-.6-6.831A4.509,4.509,0,0,1,9.644,16.2c.217-.465.413-.945,1.015-.948s.8.48.972.966a17.664,17.664,0,0,0,.785,2.088,2.146,2.146,0,0,0,2.4,1.352c.953-.285,1.033-1.153,1.159-1.948a10.109,10.109,0,0,0-.591-4.762,8.313,8.313,0,0,1,.156-5.47,2.9,2.9,0,0,1,2.105-1.9c.761-.237,1.106.055.944.815A17.851,17.851,0,0,1,17.135,10c-.162.354-.52.21-.766-.043l-.585.028c-.11.263-.526.656-.2.785a11.6,11.6,0,0,1,2.568,1.958c.345.256.708.051,1.052-.1a2.078,2.078,0,0,0,1.182-1.574c.109-.478.248-.852.859-.539.3.155.63.165.75-.233a.531.531,0,0,0-.4-.718c-.976-.162-.857-.857-.83-1.537a3.109,3.109,0,0,1,.183-1.459l0,.049c-.891-2.059-.166-2.845,1.508-4.293.578-.5,1.286-.8,1.678.392.23.7.8.713,1.245.055a4.284,4.284,0,0,1,.289-.478C26.8,1.03,28,1.147,28.773,2.642a4.214,4.214,0,0,1-.559,4.72c-.4.549-.86,1.063-1.224,1.636a.751.751,0,0,0,.053,1.026c.373.3.691.019.961-.245.311-.3.589-.643.912-.934a1.638,1.638,0,0,1,1.9-.33,1.774,1.774,0,0,1,1.048,1.827,3.434,3.434,0,0,1-1.555,2.822,47.162,47.162,0,0,1-4.691,2.285c-.612.305-1.163.931-1.985.318-.211-.158-.691.328-.409.531.755.543.37,1.206.385,1.833A2.093,2.093,0,0,0,26.2,20.306a3.17,3.17,0,0,0,1.516-.672,10.873,10.873,0,0,0,2.838-2.667c.284-.451.708-.956,1.321-.271a.426.426,0,0,0,.655-.019.621.621,0,0,0,.04-.854c-1.1-.789-.393-1.608-.135-2.446a16.808,16.808,0,0,0,.875-2.648,5.431,5.431,0,0,1,2.85-4.142c.428-.243.873-.663,1.355-.357.442.28.085.8.08,1.208,0,.124-.026.249-.017.372a.693.693,0,0,0,.5.7c.356.086.576-.152.707-.455a16.254,16.254,0,0,1,.65-1.546,3.708,3.708,0,0,1,2.283-2.06c.934-.231,1.287-.063,1.421.869A2.442,2.442,0,0,0,43.8,6.786a1.642,1.642,0,0,1-.649,2.9,11.156,11.156,0,0,1-2.183.462,4.308,4.308,0,0,0-2.36,1.023,1.633,1.633,0,0,0-.484,2.155c.445.8.993,1.018,2.069.683a10.833,10.833,0,0,0,3.136-1.62c.64-.465,1.132-.833,1.439.278.106.385.4.683.833.432.448-.261.154-.649.064-.991-.129-.491-.7-.921-.123-1.5a3.429,3.429,0,0,0,1.181-2.063A.94.94,0,0,1,47.185,8a2.036,2.036,0,0,1,2.273-.257c.8.523.113,1.079-.113,1.6a.65.65,0,0,0,.079.7c.264.292.564.146.813-.069a4.747,4.747,0,0,1,2.506-1.157,2.08,2.08,0,0,1,2.525,2.55A3.709,3.709,0,0,1,51.98,14.69a13.224,13.224,0,0,0-1.647.269c-.465.14-.761.47-.308.965a6.888,6.888,0,0,1,.518.535,1.4,1.4,0,0,1,.185,1.723,1.361,1.361,0,0,1-1.639.559c-1.614-.462-3.319-.34-4.936-.9a3.959,3.959,0,0,0-3.98.974,1.36,1.36,0,0,0-.607,1.455A1.577,1.577,0,0,0,40.9,21.409a2.416,2.416,0,0,0,1.63-.189c.667-.335,1.332-.677,2.012-.983a5.239,5.239,0,0,1,4.158-.208,1.644,1.644,0,0,1,1.158,1.7c.015.748-.59,1.079-1.19,1.261a3.3,3.3,0,0,1-2.181-.025c-1.142-.415-1.342-.185-1.069.928.344,1.4-.467,2.346-1.864,2.055A4.079,4.079,0,0,1,41.52,25.1a5.744,5.744,0,0,0-5.354-1.486,37.294,37.294,0,0,1-6.12.351,5.7,5.7,0,0,0-3.632,1.274A1.224,1.224,0,0,0,27,27.457a3.3,3.3,0,0,0,1.657-.134A27.949,27.949,0,0,0,33.9,25.417a6.308,6.308,0,0,1,4.727-.385A1.964,1.964,0,0,1,40.238,27.2c-.212,1.018-.97,1.423-2.345,1.109a16.039,16.039,0,0,0-4.41-.644m-4.13-11a10.683,10.683,0,0,1-2.644,2.024c-.548.265-1.128.331-1.51-.189-.463-.629-.055-1.173.414-1.6a3.751,3.751,0,0,1,.947-.565c.613-.287,1.241-.541,1.863-.808.581-.249,1.26-.987,1.752-.369.3.376-.464,1.034-.822,1.509m13-5.319c.134.046.15.136.087.286a4.791,4.791,0,0,1-2.823,1.06.308.308,0,0,1-.191-.432,2.774,2.774,0,0,1,2.927-.914m-1,8.1a2.075,2.075,0,0,1,2.2-.549c.18.054.394.2.235.36A3.033,3.033,0,0,1,42,20.087a.66.66,0,0,1-.361-.023,1.026,1.026,0,0,1-.387-.314c-.038-.054.069-.209.1-.3" transform="translate(0 0.001)" fill="#340009"/>
      <path id="Path_8348" data-name="Path 8348" d="M79.8,83.3c.165-.259.369-.5.286-.848-.052-.218-.259-.464.048-.655s1.089.031.83-.638a1.028,1.028,0,0,0-1.441-.41c-.937,1.083-2.16.3-3.18.688-1.09.412-2.2-.041-3.3-.1-.282-.015-.68-.157-.71.295-.018.273.317.388.551.377,1.455-.069,2.826,1.076,4.332.291a.447.447,0,0,1,.63.223c.413.962,1.208.854,2.008.759Z" transform="translate(-48.85 -53.336)" fill="#340009"/>
      <path id="Path_8349" data-name="Path 8349" d="M110.029,103.065a3.408,3.408,0,0,0,1.22-1.769c.129-.757-.016-.858-1.038-.654.038.106.127.225.1.315a3.141,3.141,0,0,1-.267.645c-.01.019-.247-.022-.261-.071-.077-.256.1-.439.238-.627a2.814,2.814,0,0,1,.242-.263c-.142-.268-.074-.84-.639-.526a2.84,2.84,0,0,0-.609.656c-.576.649-.759,1.185.308,1.55.3.1.514.486.767.74Z" transform="translate(-91.372 -66.195)" fill="#340009"/>
      <path id="Path_8350" data-name="Path 8350" d="M88.228,32.289c-.33.4-.1.918-.22,1.378-.1.387.341.425.636.409a1.519,1.519,0,0,1,1.016.3c.124.088.457.122.406-.12a6.475,6.475,0,0,0-.627-1.968c-.173-.291-.786-.222-1.211,0" transform="translate(-63.201 -21.241)" fill="#340009"/>
      <path id="Path_8351" data-name="Path 8351" d="M93.547,14.331c-.331,1.127-.667,2.253-.986,3.383a.359.359,0,0,0,.1.308.332.332,0,0,0,.483-.085,5.784,5.784,0,0,0,.892-3.529.317.317,0,0,0-.2-.239c-.092-.008-.194.1-.292.163" transform="translate(-68.71 -9.376)" fill="#340009"/>
      <path id="Path_8352" data-name="Path 8352" d="M112.591,44.407c-.229-.114-.5-.306-.813-.147-.363.183-.3.494-.147.77.186.327-.068.576-.09.859-.046.583.413.682.844.721.46.042.7-.2.564-.665-.144-.5.3-1.12-.358-1.538" transform="translate(-94.069 -29.251)" fill="#340009"/>
      <path id="Path_8353" data-name="Path 8353" d="M74.9,100.979c.365.521.747.543,1.083.114a1.037,1.037,0,0,0-.007-1.5.993.993,0,0,0-1.34.091c-.6.576-.11.968.265,1.293" transform="translate(-44.817 -65.767)" fill="#340009"/>
      <path id="Path_8354" data-name="Path 8354" d="M46.183,100.494c-.164.189-.057.324.111.4.732.323,1.767.021,2.127,1.129.09.277.422.063.57-.141.165-.227.518-.4.35-.755a5.587,5.587,0,0,0-3.158-.631" transform="translate(-8.348 -66.465)" fill="#340009"/>
      <path id="Path_8355" data-name="Path 8355" d="M127.77,69.256a5.943,5.943,0,0,0,.751-3.886.563.563,0,0,0-.24-.438c-.231-.079-.329.172-.308.339.166,1.356-.388,2.644-.362,3.985Z" transform="translate(-115.068 -42.962)" fill="#340009"/>
      <path id="Path_8356" data-name="Path 8356" d="M99.2,115.67a.611.611,0,0,0,.772-.313,3.361,3.361,0,0,0-.372-2.227c-.337-.3-.538.033-.743.225a6.96,6.96,0,0,0,.344,2.315" transform="translate(-76.834 -74.79)" fill="#340009"/>
      <path id="Path_8357" data-name="Path 8357" d="M69.319,111.41c.293-.426.362-.819-.122-1.092-.33-.186-.689-.615-1.078-.085a.693.693,0,0,0,.153,1.086c.357.277.682.521,1.047.09" transform="translate(-35.892 -72.784)" fill="#340009"/>
      <path id="Path_8358" data-name="Path 8358" d="M43.518,20.031c-.133.128-.271.251-.4.385s-.213.311-.062.466a.473.473,0,0,0,.333.056,1.5,1.5,0,0,0,1.137-.528c.24-.317.345-.745.037-1.01-.341-.292-.676-.076-.871.308-.055.109-.118.215-.177.322" transform="translate(-2.663 -12.75)" fill="#340009"/>
      <path id="Path_8359" data-name="Path 8359" d="M61.413,38.92c-.421.546-.867,1.052-.687,1.792a.18.18,0,0,0,.145.1c.8-.162.839-.967,1.225-1.478.142-.189.249-.466.021-.654-.351-.29-.512.087-.7.242" transform="translate(-26.145 -25.526)" fill="#340009"/>
      <path id="Path_8360" data-name="Path 8360" d="M130.834,77.745c-.626,1.272-.571,2.721-1.052,4.031l-.044,0a4.386,4.386,0,0,0,1.255-4.027Z" transform="translate(-118.291 -51.452)" fill="#340009"/>
      <path id="Path_8361" data-name="Path 8361" d="M22.013,47.593c-.212.411-.337.918.032,1.171a1.055,1.055,0,0,0,1.31-.251.448.448,0,0,0-.062-.653c-.362-.31-.771-.6-1.281-.267" transform="translate(25.781 -31.399)" fill="#340009"/>
      <path id="Path_8362" data-name="Path 8362" d="M67.537,96.549c-.685-.261-1.373-.539-2.076-.775-.126-.043-.312.09-.47.142.057.107.088.247.175.314a4.412,4.412,0,0,0,2.241.817.326.326,0,0,0,.267-.176c.02-.089-.082-.206-.137-.323" transform="translate(-33.028 -63.378)" fill="#340009"/>
      <path id="Path_8363" data-name="Path 8363" d="M27.877,30.862a1.062,1.062,0,0,0,.117,1.438.4.4,0,0,0,.633.047,1.347,1.347,0,0,0-.087-1.5c-.1-.2-.414-.187-.663.019" transform="translate(18.452 -20.317)" fill="#340009"/>
      <path id="Path_8364" data-name="Path 8364" d="M71.295,87.6c-.366.556.008.742.448.89.354.119.733.208.944-.2a.846.846,0,0,0,.007-1.011c-.262-.3-.526-.124-.792.041a5.62,5.62,0,0,1-.653.3l.047-.016" transform="translate(-40.294 -57.651)" fill="#340009"/>
      <path id="Path_8365" data-name="Path 8365" d="M74.355,65.147c-.048.242-.126.4-.08.459.1.13.274.305.4.292a4.923,4.923,0,0,0,1.22-.27.477.477,0,0,0,.223-.745c-.122-.222-.322-.425-.573-.321-.433.18-.714.634-1.189.585" transform="translate(-44.695 -42.709)" fill="#340009"/>
      <path id="Path_8366" data-name="Path 8366" d="M116.417,99.068c-.175.331-.736.632-.2,1.054.269.211.625-.021.8-.247.258-.328.574-.8.247-1.155-.359-.392-.6.107-.851.348" transform="translate(-100.006 -65.237)" fill="#340009"/>
      <path id="Path_8367" data-name="Path 8367" d="M60.654,78a1.581,1.581,0,0,0,1.064.3.644.644,0,0,0,.434-.242c.139-.255-.017-.449-.271-.545a5.121,5.121,0,0,0-.849-.285c-.238-.044-.507.032-.539.323-.017.154.111.324.161.454" transform="translate(-26.033 -51.097)" fill="#340009"/>
      <path id="Path_8368" data-name="Path 8368" d="M81.244,31.8a3.042,3.042,0,0,0,.3,1.808c.123.238.5.093.564-.156a3.278,3.278,0,0,0-.3-1.724c-.042-.156-.307-.138-.572.072" transform="translate(-52.996 -20.931)" fill="#340009"/>
      <path id="Path_8369" data-name="Path 8369" d="M87.229,22.053c-.2.276-.151.529.089.656a1.052,1.052,0,0,0,1.21-.192.4.4,0,0,0,0-.647c-.5-.4-.918-.091-1.3.183" transform="translate(-61.521 -14.348)" fill="#340009"/>
      <path id="Path_8370" data-name="Path 8370" d="M19.749,37.8c-.025.2-.085.336-.041.418A.434.434,0,0,0,20,38.38a.642.642,0,0,0,.357-.047c.459-.222,1.136-.113,1.275-.815.012-.061-.142-.217-.226-.223a2.9,2.9,0,0,0-1.658.509" transform="translate(28.336 -24.679)" fill="#340009"/>
      <path id="Path_8371" data-name="Path 8371" d="M67.1,39.291A.706.706,0,0,0,67.16,40.3a.489.489,0,0,0,.779.013c.27-.352.023-.689-.243-.934a.442.442,0,0,0-.6-.087" transform="translate(-34.056 -25.946)" fill="#340009"/>
      <path id="Path_8372" data-name="Path 8372" d="M50.884,52.078c-.186.294-.513.541-.293.962a.791.791,0,0,0,.687.5.4.4,0,0,0,.419-.263c.141-.337-.05-.575-.294-.772-.187-.151-.388-.284-.584-.425Z" transform="translate(-12.2 -34.465)" fill="#340009"/>
      <path id="Path_8373" data-name="Path 8373" d="M132.7,62.026a.587.587,0,0,0-.136-.8c-.23-.225-.535-.352-.79-.1-.326.319-.194.667.125.917a.55.55,0,0,0,.8-.014" transform="translate(-120.682 -40.361)" fill="#340009"/>
      <path id="Path_8374" data-name="Path 8374" d="M83.479,95.588c-.384-.206-.605-.133-.725.121-.156.329-.329.7.084.97.242.158.463,0,.626-.193a.744.744,0,0,0,.015-.9" transform="translate(-54.926 -63.181)" fill="#340009"/>
      <path id="Path_8375" data-name="Path 8375" d="M85.392,16.965c.335.179.688.337,1.01,0a.421.421,0,0,0-.07-.651.755.755,0,0,0-1.014-.007c-.229.215-.089.448.074.654" transform="translate(-58.71 -10.666)" fill="#340009"/>
      <path id="Path_8376" data-name="Path 8376" d="M101.26,18.261l.832.78-.052.013c.392-.274.945-.586.476-1.1-.509-.562-.956-.195-1.253.36Z" transform="translate(-80.312 -11.694)" fill="#340009"/>
      <path id="Path_8377" data-name="Path 8377" d="M100.47,21.727c-.439.423-.355.752.2.963.316.121.72.072.762-.267.093-.761-.513-.681-1.008-.684Z" transform="translate(-78.692 -14.379)" fill="#340009"/>
      <path id="Path_8378" data-name="Path 8378" d="M61.751,62.761a2.932,2.932,0,0,0-.384.383.512.512,0,0,0,.067.785.5.5,0,0,0,.663-.021.555.555,0,0,0,.02-.8,2.285,2.285,0,0,0-.419-.342Z" transform="translate(-26.355 -41.535)" fill="#340009"/>
      <path id="Path_8379" data-name="Path 8379" d="M97,79.035c-.435-.233-.832-.368-1.182.007-.048.051.064.341.175.434.343.29.738.44,1.074,0,.068-.087-.044-.313-.067-.444" transform="translate(-72.866 -52.155)" fill="#340009"/>
      <path id="Path_8380" data-name="Path 8380" d="M115.994,60.415c-.143.318.021.562.311.729a.434.434,0,0,0,.626-.179.48.48,0,0,0-.091-.668.568.568,0,0,0-.846.118" transform="translate(-99.607 -39.813)" fill="#340009"/>
      <path id="Path_8381" data-name="Path 8381" d="M56.571,30.422c-.245-.232-.469-.092-.648.059-.237.2-.46.5-.275.79.217.345.534.176.764-.049a.591.591,0,0,0,.159-.8" transform="translate(-18.837 -20.052)" fill="#340009"/>
      <path id="Path_8382" data-name="Path 8382" d="M32.579,62.068a.472.472,0,0,0,.087.671c.258.192.583.275.821-.039a.462.462,0,0,0-.09-.663.558.558,0,0,0-.818.031" transform="translate(12.056 -40.948)" fill="#340009"/>
      <path id="Path_8383" data-name="Path 8383" d="M118.363,27.28l.551-.028c.174-.313.463-.619.22-1-.154-.242-.418-.2-.638-.071-.518.3-.336.7-.133,1.1" transform="translate(-102.559 -17.257)" fill="#340009"/>
      <path id="Path_8384" data-name="Path 8384" d="M12.048,39.557c-.566-.353-.811-.338-1-.162-.236.214-.15.442.092.585a.448.448,0,0,0,.64-.144c.1-.15.154-.348.272-.279" transform="translate(40.893 -25.991)" fill="#340009"/>
      <path id="Path_8385" data-name="Path 8385" d="M12.423,34.748a.4.4,0,0,0,.61-.137.563.563,0,0,0-.04-.5.4.4,0,0,0-.631,0,.43.43,0,0,0,.061.638" transform="translate(39.414 -22.474)" fill="#340009"/>
      <path id="Path_8386" data-name="Path 8386" d="M40.93,66.737c-.209.356.115.527.283.739.155.2.438.374.619.236.308-.235.115-.549-.092-.774a.629.629,0,0,0-.81-.2" transform="translate(0.817 -44.116)" fill="#340009"/>
      <path id="Path_8387" data-name="Path 8387" d="M50.026,78.815c.282.222.595.373.934.074a.317.317,0,0,0,0-.476.667.667,0,0,0-.951-.1c-.169.139-.083.322.017.505" transform="translate(-11.318 -51.721)" fill="#340009"/>
      <path id="Path_8388" data-name="Path 8388" d="M88.339,94.042a.514.514,0,0,0-.653.078.4.4,0,0,0,0,.625.45.45,0,0,0,.644-.053.479.479,0,0,0,.008-.651" transform="translate(-61.437 -62.183)" fill="#340009"/>
      <path id="Path_8389" data-name="Path 8389" d="M114.25,56.092a.5.5,0,0,0,.174.647.409.409,0,0,0,.634-.072.454.454,0,0,0-.148-.643.5.5,0,0,0-.659.067" transform="translate(-97.126 -37.014)" fill="#340009"/>
      <path id="Path_8390" data-name="Path 8390" d="M132.425,57.606c.213.132.437.26.67.06a.4.4,0,0,0,.052-.637.464.464,0,0,0-.663-.056.4.4,0,0,0-.06.633" transform="translate(-121.394 -37.629)" fill="#340009"/>
      <path id="Path_8391" data-name="Path 8391" d="M76.881,29.887A.484.484,0,0,0,77,30.62a.332.332,0,0,0,.484-.05.486.486,0,0,0-.089-.77.337.337,0,0,0-.51.087" transform="translate(-46.961 -19.668)" fill="#340009"/>
      <path id="Path_8392" data-name="Path 8392" d="M103.125,62.872a.625.625,0,0,0-.665.059.352.352,0,0,0,.035.59.452.452,0,1,0,.63-.649" transform="translate(-81.232 -41.565)" fill="#340009"/>
      <path id="Path_8393" data-name="Path 8393" d="M67.558,79.629c.215-.117.464-.222.48-.506.02-.386-.255-.52-.578-.591a.341.341,0,0,0-.431.238c-.094.466.389.572.6.854l-.066,0" transform="translate(-34.075 -51.965)" fill="#340009"/>
      <path id="Path_8394" data-name="Path 8394" d="M104.264,58.9c-.172-.1-.335-.143-.473.016a.41.41,0,0,0-.025.61.291.291,0,0,0,.446-.039c.165-.18.249-.383.053-.587" transform="translate(-82.799 -38.922)" fill="#340009"/>
      <path id="Path_8395" data-name="Path 8395" d="M131.836,67.523a.523.523,0,0,0,.254.743.4.4,0,0,0,.61-.143.486.486,0,0,0-.244-.6c-.2-.129-.414-.267-.62.005" transform="translate(-120.673 -44.583)" fill="#340009"/>
      <path id="Path_8396" data-name="Path 8396" d="M25.3,28.784a.454.454,0,0,0-.016.636.423.423,0,1,0,.648-.524.405.405,0,0,0-.633-.112" transform="translate(22.052 -18.979)" fill="#340009"/>
      <path id="Path_8397" data-name="Path 8397" d="M56.76,76.492a.333.333,0,0,0-.091.452.3.3,0,0,0,.455.086c.208-.131.386-.322.126-.552a.359.359,0,0,0-.49.014" transform="translate(-19.898 -50.554)" fill="#340009"/>
      <path id="Path_8398" data-name="Path 8398" d="M29.755,41.02c-.015.189.042.348.241.394.237.055.474.05.464-.285a.347.347,0,0,0-.317-.35c-.178-.02-.355.006-.388.241" transform="translate(16.106 -26.984)" fill="#340009"/>
      <path id="Path_8399" data-name="Path 8399" d="M62.846,32.674a.32.32,0,0,0,.129.441.311.311,0,0,0,.455-.131.3.3,0,0,0-.107-.442.4.4,0,0,0-.478.131" transform="translate(-28.095 -21.513)" fill="#340009"/>
      <path id="Path_8400" data-name="Path 8400" d="M42.162,104.059a.32.32,0,0,0-.444-.01c-.2.129-.121.3-.033.454.126.215.3.123.437.023.165-.118.165-.281.04-.467" transform="translate(0.31 -68.803)" fill="#340009"/>
      <path id="Path_8401" data-name="Path 8401" d="M45.617,96.823a.334.334,0,0,0,.243.405.206.206,0,0,0,.3-.143.268.268,0,0,0-.226-.386c-.1-.013-.212.079-.318.124" transform="translate(-4.977 -63.994)" fill="#340009"/>
      <path id="Path_8402" data-name="Path 8402" d="M39.794,100.111c.166.122.349.154.479-.021a.3.3,0,0,0-.12-.449.371.371,0,0,0-.323.01c-.188.12-.167.294-.036.459" transform="translate(2.87 -65.922)" fill="#340009"/>
      <path id="Path_8403" data-name="Path 8403" d="M73.478,108.287a.368.368,0,0,0,.113.472c.147.1.364.177.411-.1a.636.636,0,0,0-.086-.48c-.136-.143-.332-.091-.438.111" transform="translate(-42.222 -71.538)" fill="#340009"/>
      <path id="Path_8404" data-name="Path 8404" d="M98.024,32.3c.093.018.215.084.289.049a.4.4,0,0,0,.213-.583.487.487,0,0,0-.321.059.378.378,0,0,0-.181.474" transform="translate(-75.092 -21.017)" fill="#340009"/>
      <path id="Path_8405" data-name="Path 8405" d="M53.945,103.909c.05.02.109.069.147.055.114-.039.113-.134-.009-.228-.031-.024-.1.005-.158.01.007.054.013.108.02.162" transform="translate(-15.785 -68.647)" fill="#340009"/>
      <path id="Path_8406" data-name="Path 8406" d="M83.211,67.963a.451.451,0,0,0-.009.167c.05.139.172.186.271.083s.046-.223-.1-.267a.443.443,0,0,0-.166.017" transform="translate(-55.031 -44.964)" fill="#340009"/>
    </g>
  </g>
</svg>
